<svg id="visual" viewBox="0 0 1920 1080" width="1920" height="1080" xmlns="http://www.w3.org/2000/svg" xmlns:xlink="http://www.w3.org/1999/xlink" version="1.1"><rect x="0" y="0" width="1920" height="1080" fill="#ffffff"></rect><path d="M0 670L18.8 672.5C37.7 675 75.3 680 113 692.8C150.7 705.7 188.3 726.3 226 718.3C263.7 710.3 301.3 673.7 339 666.8C376.7 660 414.3 683 452 707.7C489.7 732.3 527.3 758.7 565 765.2C602.7 771.7 640.3 758.3 678 757.2C715.7 756 753.3 767 791 757C828.7 747 866.3 716 903.8 702.8C941.3 689.7 978.7 694.3 1016.2 711.5C1053.7 728.7 1091.3 758.3 1129 753.7C1166.7 749 1204.3 710 1242 705.3C1279.7 700.7 1317.3 730.3 1355 750.7C1392.7 771 1430.3 782 1468 776.2C1505.7 770.3 1543.3 747.7 1581 729.8C1618.7 712 1656.3 699 1694 706.8C1731.7 714.7 1769.3 743.3 1807 745.5C1844.7 747.7 1882.3 723.3 1901.2 711.2L1920 699L1920 1081L1901.2 1081C1882.3 1081 1844.7 1081 1807 1081C1769.3 1081 1731.7 1081 1694 1081C1656.3 1081 1618.7 1081 1581 1081C1543.3 1081 1505.7 1081 1468 1081C1430.3 1081 1392.7 1081 1355 1081C1317.3 1081 1279.7 1081 1242 1081C1204.3 1081 1166.7 1081 1129 1081C1091.3 1081 1053.7 1081 1016.2 1081C978.7 1081 941.3 1081 903.8 1081C866.3 1081 828.7 1081 791 1081C753.3 1081 715.7 1081 678 1081C640.3 1081 602.7 1081 565 1081C527.3 1081 489.7 1081 452 1081C414.3 1081 376.7 1081 339 1081C301.3 1081 263.7 1081 226 1081C188.3 1081 150.7 1081 113 1081C75.3 1081 37.7 1081 18.8 1081L0 1081Z" fill="#fa7268"></path><path d="M0 773L18.8 765.7C37.7 758.3 75.3 743.7 113 732.5C150.7 721.3 188.3 713.7 226 722.7C263.7 731.7 301.3 757.3 339 776.3C376.7 795.3 414.3 807.7 452 803.2C489.7 798.7 527.3 777.3 565 761.3C602.7 745.3 640.3 734.7 678 746.2C715.7 757.7 753.3 791.3 791 787.2C828.7 783 866.3 741 903.8 724.2C941.3 707.3 978.7 715.7 1016.2 725.8C1053.7 736 1091.3 748 1129 763C1166.7 778 1204.3 796 1242 789.7C1279.7 783.3 1317.3 752.7 1355 750.5C1392.7 748.3 1430.3 774.7 1468 773.3C1505.7 772 1543.3 743 1581 730.7C1618.7 718.3 1656.3 722.7 1694 720.7C1731.7 718.7 1769.3 710.3 1807 726.2C1844.7 742 1882.3 782 1901.2 802L1920 822L1920 1081L1901.2 1081C1882.3 1081 1844.7 1081 1807 1081C1769.3 1081 1731.7 1081 1694 1081C1656.3 1081 1618.7 1081 1581 1081C1543.3 1081 1505.7 1081 1468 1081C1430.3 1081 1392.7 1081 1355 1081C1317.3 1081 1279.7 1081 1242 1081C1204.3 1081 1166.7 1081 1129 1081C1091.3 1081 1053.7 1081 1016.2 1081C978.7 1081 941.3 1081 903.8 1081C866.3 1081 828.7 1081 791 1081C753.3 1081 715.7 1081 678 1081C640.3 1081 602.7 1081 565 1081C527.3 1081 489.7 1081 452 1081C414.3 1081 376.7 1081 339 1081C301.3 1081 263.7 1081 226 1081C188.3 1081 150.7 1081 113 1081C75.3 1081 37.7 1081 18.8 1081L0 1081Z" fill="#f16367"></path><path d="M0 894L18.8 872.8C37.7 851.7 75.3 809.3 113 800.5C150.7 791.7 188.3 816.3 226 836.3C263.7 856.3 301.3 871.7 339 870.8C376.7 870 414.3 853 452 841.3C489.7 829.7 527.3 823.3 565 817.7C602.7 812 640.3 807 678 809.3C715.7 811.7 753.3 821.3 791 834C828.7 846.7 866.3 862.3 903.8 869.3C941.3 876.3 978.7 874.7 1016.2 871.5C1053.7 868.3 1091.3 863.7 1129 866.8C1166.7 870 1204.3 881 1242 875C1279.7 869 1317.3 846 1355 842.8C1392.7 839.7 1430.3 856.3 1468 847C1505.7 837.7 1543.3 802.3 1581 798.5C1618.7 794.7 1656.3 822.3 1694 826C1731.7 829.7 1769.3 809.3 1807 808.7C1844.7 808 1882.3 827 1901.2 836.5L1920 846L1920 1081L1901.2 1081C1882.3 1081 1844.7 1081 1807 1081C1769.3 1081 1731.7 1081 1694 1081C1656.3 1081 1618.7 1081 1581 1081C1543.3 1081 1505.7 1081 1468 1081C1430.3 1081 1392.7 1081 1355 1081C1317.3 1081 1279.7 1081 1242 1081C1204.3 1081 1166.7 1081 1129 1081C1091.3 1081 1053.7 1081 1016.2 1081C978.7 1081 941.3 1081 903.8 1081C866.3 1081 828.7 1081 791 1081C753.3 1081 715.7 1081 678 1081C640.3 1081 602.7 1081 565 1081C527.3 1081 489.7 1081 452 1081C414.3 1081 376.7 1081 339 1081C301.3 1081 263.7 1081 226 1081C188.3 1081 150.7 1081 113 1081C75.3 1081 37.7 1081 18.8 1081L0 1081Z" fill="#e85467"></path><path d="M0 900L18.8 906.3C37.7 912.7 75.3 925.3 113 931.5C150.7 937.7 188.3 937.3 226 920.3C263.7 903.3 301.3 869.7 339 859C376.7 848.3 414.3 860.7 452 861.8C489.7 863 527.3 853 565 854.5C602.7 856 640.3 869 678 871.8C715.7 874.7 753.3 867.3 791 871C828.7 874.7 866.3 889.3 903.8 889.3C941.3 889.3 978.7 874.7 1016.2 864.5C1053.7 854.3 1091.3 848.7 1129 859.8C1166.7 871 1204.3 899 1242 912.8C1279.7 926.7 1317.3 926.3 1355 928.8C1392.7 931.3 1430.3 936.7 1468 922.7C1505.7 908.7 1543.3 875.3 1581 857.8C1618.7 840.3 1656.3 838.7 1694 854.2C1731.7 869.7 1769.3 902.3 1807 920C1844.7 937.7 1882.3 940.3 1901.2 941.7L1920 943L1920 1081L1901.2 1081C1882.3 1081 1844.7 1081 1807 1081C1769.3 1081 1731.7 1081 1694 1081C1656.3 1081 1618.7 1081 1581 1081C1543.3 1081 1505.7 1081 1468 1081C1430.3 1081 1392.7 1081 1355 1081C1317.3 1081 1279.7 1081 1242 1081C1204.3 1081 1166.7 1081 1129 1081C1091.3 1081 1053.7 1081 1016.2 1081C978.7 1081 941.3 1081 903.8 1081C866.3 1081 828.7 1081 791 1081C753.3 1081 715.7 1081 678 1081C640.3 1081 602.7 1081 565 1081C527.3 1081 489.7 1081 452 1081C414.3 1081 376.7 1081 339 1081C301.3 1081 263.7 1081 226 1081C188.3 1081 150.7 1081 113 1081C75.3 1081 37.7 1081 18.8 1081L0 1081Z" fill="#de4467"></path><path d="M0 972L18.8 975C37.7 978 75.3 984 113 981.5C150.7 979 188.3 968 226 958.5C263.7 949 301.3 941 339 933.8C376.7 926.7 414.3 920.3 452 917.3C489.7 914.3 527.3 914.7 565 913.2C602.7 911.7 640.3 908.3 678 906.7C715.7 905 753.3 905 791 915.5C828.7 926 866.3 947 903.8 956.8C941.3 966.7 978.7 965.3 1016.2 958.2C1053.7 951 1091.3 938 1129 929.2C1166.7 920.3 1204.3 915.7 1242 918.7C1279.7 921.7 1317.3 932.3 1355 941.8C1392.7 951.3 1430.3 959.7 1468 959.7C1505.7 959.7 1543.3 951.3 1581 942.8C1618.7 934.3 1656.3 925.7 1694 933C1731.7 940.3 1769.3 963.7 1807 965.3C1844.7 967 1882.3 947 1901.2 937L1920 927L1920 1081L1901.2 1081C1882.3 1081 1844.7 1081 1807 1081C1769.3 1081 1731.7 1081 1694 1081C1656.3 1081 1618.7 1081 1581 1081C1543.3 1081 1505.7 1081 1468 1081C1430.3 1081 1392.7 1081 1355 1081C1317.3 1081 1279.7 1081 1242 1081C1204.3 1081 1166.7 1081 1129 1081C1091.3 1081 1053.7 1081 1016.2 1081C978.7 1081 941.3 1081 903.8 1081C866.3 1081 828.7 1081 791 1081C753.3 1081 715.7 1081 678 1081C640.3 1081 602.7 1081 565 1081C527.3 1081 489.7 1081 452 1081C414.3 1081 376.7 1081 339 1081C301.3 1081 263.7 1081 226 1081C188.3 1081 150.7 1081 113 1081C75.3 1081 37.7 1081 18.8 1081L0 1081Z" fill="#d23467"></path><path d="M0 972L18.8 971.7C37.7 971.3 75.3 970.7 113 971C150.7 971.3 188.3 972.7 226 975.5C263.7 978.3 301.3 982.7 339 988.5C376.7 994.3 414.3 1001.7 452 998.3C489.7 995 527.3 981 565 976.5C602.7 972 640.3 977 678 989.2C715.7 1001.3 753.3 1020.7 791 1028.5C828.7 1036.3 866.3 1032.7 903.8 1022.7C941.3 1012.7 978.7 996.3 1016.2 990.5C1053.7 984.7 1091.3 989.3 1129 987.8C1166.7 986.3 1204.3 978.7 1242 979.2C1279.7 979.7 1317.3 988.3 1355 999.2C1392.7 1010 1430.3 1023 1468 1022.8C1505.7 1022.7 1543.3 1009.3 1581 997.8C1618.7 986.3 1656.3 976.7 1694 975.7C1731.7 974.7 1769.3 982.3 1807 984.2C1844.7 986 1882.3 982 1901.2 980L1920 978L1920 1081L1901.2 1081C1882.3 1081 1844.7 1081 1807 1081C1769.3 1081 1731.7 1081 1694 1081C1656.3 1081 1618.7 1081 1581 1081C1543.3 1081 1505.7 1081 1468 1081C1430.3 1081 1392.7 1081 1355 1081C1317.3 1081 1279.7 1081 1242 1081C1204.3 1081 1166.7 1081 1129 1081C1091.3 1081 1053.7 1081 1016.2 1081C978.7 1081 941.3 1081 903.8 1081C866.3 1081 828.7 1081 791 1081C753.3 1081 715.7 1081 678 1081C640.3 1081 602.7 1081 565 1081C527.3 1081 489.7 1081 452 1081C414.3 1081 376.7 1081 339 1081C301.3 1081 263.7 1081 226 1081C188.3 1081 150.7 1081 113 1081C75.3 1081 37.7 1081 18.8 1081L0 1081Z" fill="#c62368"></path></svg>